#!OML:ASF E:\acrobat2\Project_11_07_03\Capture day 1\Session 1\Acrobat.ASF
:FULLY-SPECIFIED
:DEGREES
193
root 9.71448 19.6232 -8.74754 10.3551 -55.1142 6.78797
lowerback 8.94287 12.149 7.26048
upperback 1.88109 16.6882 -6.72648
thorax 1.24555 8.63966 -11.8458
lowerneck -8.51523 -1.85724 0.211004
upperneck 0.472824 -2.48712 -0.558246
head 1.57683 -1.25838 -0.307217
rclavicle 1.26427e-013 -6.52014e-014
rhumerus 98.309 26.8385 -17.2563
rradius 81.6368
rwrist 5.20594
rhand -20.9528 -24.0302
rfingers 7.12502
rthumb 5.4199 -53.9409
lclavicle 1.26427e-013 -6.52014e-014
lhumerus -71.9711 -12.3864 33.7181
lradius 11.1371
lwrist 8.43002
lhand -7.55774 7.34767
lfingers 7.12502
lthumb 18.3343 36.5036
rfemur -24.1521 -28.4663 16.4388
rtibia 38.3977
rfoot -10.8212 -13.8497
rtoes -1.11212
lfemur -51.1878 -10.9641 4.68269
ltibia 68.2433
lfoot 2.29493 6.13786
ltoes 33.7468
194
root 9.76854 19.5373 -8.50852 10.2623 -57.3615 7.01086
lowerback 8.89683 12.2679 7.25027
upperback 1.99941 16.84 -6.73855
thorax 1.43843 8.73138 -11.8138
lowerneck -8.49705 -1.67652 0.0352564
upperneck 0.281944 -2.22032 -0.930612
head 1.51082 -1.13515 -0.381862
rclavicle 1.96399e-013 -6.12257e-014
rhumerus 98.6875 29.6947 -18.2262
rradius 82.6237
rwrist 3.92956
rhand -20.5643 -23.9628
rfingers 7.12502
rthumb 5.79506 -53.8635
lclavicle 1.96399e-013 -6.12257e-014
lhumerus -71.1186 -11.5062 32.426
lradius 11.2895
lwrist 8.1339
lhand -8.22343 7.28933
lfingers 7.12502
lthumb 17.6938 36.5043
rfemur -25.3159 -29.8485 17.5788
rtibia 38.7793
rfoot -11.8513 -14.5436
rtoes 0.413792
lfemur -50.5909 -10.2791 5.5923
ltibia 66.4705
lfoot 1.68553 6.32997
ltoes 32.8507
195
root 9.82305 19.4386 -8.27342 10.015 -59.5432 7.4583
lowerback 8.91106 12.3837 7.0507
upperback 2.03901 16.9706 -6.7551
thorax 1.45413 8.79489 -11.7225
lowerneck -8.62238 -1.50516 -0.194138
upperneck 0.468064 -1.95553 -1.325
head 1.59379 -1.0145 -0.45951
rclavicle -4.05521e-014 6.20208e-014
rhumerus 98.8351 32.6544 -19.0732
rradius 83.5628
rwrist 2.93737
rhand -20.363 -23.987
rfingers 7.12502
rthumb 5.98934 -53.8823
lclavicle -4.05521e-014 6.20208e-014
lhumerus -70.2942 -10.8021 31.41
lradius 11.523
lwrist 8.07488
lhand -8.77089 6.84757
lfingers 7.12502
lthumb 17.167 36.1092
rfemur -26.6144 -31.0666 18.7012
rtibia 39.3297
rfoot -13.0588 -15.5122
rtoes 2.13017
lfemur -49.9919 -9.69489 6.40543
ltibia 64.6745
lfoot 0.95073 6.36519
ltoes 31.9568
196
root 9.87937 19.3268 -8.03473 9.48034 -61.6754 8.17379
lowerback 9.07903 12.6488 6.88626
upperback 1.99937 17.3103 -6.91508
thorax 1.41388 8.96681 -11.8388
lowerneck -8.59167 -1.44528 -0.161181
upperneck 0.669153 -1.86726 -1.63296
head 1.65186 -0.978898 -0.559892
rclavicle -5.04913e-014 3.18055e-015
rhumerus 97.9435 35.585 -20.326
rradius 84.3935
rwrist 2.71618
rhand -20.3124 -23.3588
rfingers 7.12502
rthumb 6.03817 -53.2528
lclavicle -5.04913e-014 3.18055e-015
lhumerus -68.8898 -10.7115 30.893
lradius 11.7314
lwrist 8.6003
lhand -9.53384 6.66164
lfingers 7.12502
lthumb 16.4325 35.9856
rfemur -27.8871 -32.095 19.7213
rtibia 39.9609
rfoot -14.0422 -16.5085
rtoes 3.88804
lfemur -49.3051 -9.24404 7.05711
ltibia 62.8365
lfoot 0.048582 6.37828
ltoes 32.9728
197
root 9.93627 19.2043 -7.79609 9 -63.6029 8.84989
lowerback 9.11414 12.8288 6.67077
upperback 2.08643 17.5249 -6.96116
thorax 1.49488 9.07943 -11.7646
lowerneck -8.85767 -1.29421 -0.162408
upperneck 0.7993 -1.64997 -2.01593
head 1.74163 -0.882789 -0.676046
rclavicle -4.49253e-014 2.38542e-015
rhumerus 96.9388 38.3802 -21.4023
rradius 85.166
rwrist 2.87938
rhand -20.1392 -22.4868
rfingers 7.12502
rthumb 6.20541 -52.3759
lclavicle -4.49253e-014 2.38542e-015
lhumerus -67.6578 -10.7522 31.326
lradius 12.0398
lwrist 9.59599
lhand -10.7682 6.63297
lfingers 7.12502
lthumb 15.2438 36.0513
rfemur -29.204 -33.1258 20.9461
rtibia 40.4582
rfoot -13.9683 -17.6424
rtoes 1.97439
lfemur -48.7041 -8.61252 7.66756
ltibia 61.0392
lfoot -0.184476 5.87459
ltoes 31.9437
